<svg viewBox="0 0 88 64" xmlns="http://www.w3.org/2000/svg"><g fill-rule="nonzero" fill="none"><title>Ãcone ilustrativo de computador</title><path d="M5.738 60l5.426-8.138c.272.066.542.138.836.138h64c.292 0 .564-.072.838-.138L82.262 60H5.738zM12 48V4h64v44H12zm75.632 12.912l.032-.022-7.848-11.772c.106-.356.184-.726.184-1.118V4c0-2.208-1.792-4-4-4H12a4 4 0 0 0-4 4v44c0 .392.078.762.186 1.118L.336 60.89l.03.022C.154 61.23 0 61.59 0 62c0 1.106.894 2 2 2h84c1.106 0 2-.894 2-2 0-.41-.154-.77-.368-1.088z" fill="#304ffe"/><path d="M28.77 16.077a1.692 1.692 0 1 1 0-3.385 1.692 1.692 0 0 1 0 3.385m0-5.077a3.385 3.385 0 1 0 0 6.77 3.385 3.385 0 0 0 0-6.77m0 16.923a1.692 1.692 0 1 1 0-3.385 1.692 1.692 0 0 1 0 3.385m0-5.076a3.384 3.384 0 1 0-.002 6.768 3.384 3.384 0 0 0 .001-6.768m30.462 5.076H38.923a1.692 1.692 0 1 1 0-3.385h20.308a1.693 1.693 0 0 1 0 3.385m0-5.076H38.923a3.384 3.384 0 1 0 0 6.768h20.308a3.385 3.385 0 1 0 0-6.768m0 16.922H38.923a1.693 1.693 0 0 1 0-3.384h20.308a1.693 1.693 0 0 1 0 3.384m0-5.077H38.923a3.385 3.385 0 0 0 0 6.77h20.308a3.385 3.385 0 0 0 0-6.77M38.923 12.693h20.308a1.692 1.692 0 1 1 0 3.384H38.923a1.692 1.692 0 0 1 0-3.384m20.308 5.076a3.385 3.385 0 0 0 0-6.768H38.923a3.384 3.384 0 1 0 0 6.768h20.308zm-30.462 22a1.693 1.693 0 1 1 .001-3.386 1.693 1.693 0 0 1 0 3.386m0-5.077a3.385 3.385 0 1 0 0 6.77 3.385 3.385 0 0 0 0-6.77" fill="#304ffe"/></g></svg>
