<svg viewBox="0 0 83 64" xmlns="http://www.w3.org/2000/svg"><g fill-rule="nonzero" fill="none"><title>Ãcone ilustrativo de e-mail</title><path d="M64 55.31L48.22 39.53 64 23.751v31.557zm-3.765 4.925H7.53a3.733 3.733 0 0 1-2.445-.922L22.206 42.19l6.462 6.464a7.357 7.357 0 0 0 5.214 2.161c1.888 0 3.774-.72 5.213-2.16l6.464-6.465L62.68 59.313a3.73 3.73 0 0 1-2.445.922zM3.765 23.75l15.78 15.78-15.78 15.78V23.75zm3.764-4.926h52.706a3.74 3.74 0 0 1 2.445.924L36.433 45.995a3.598 3.598 0 0 1-2.55 1.056c-.964 0-1.87-.378-2.553-1.056L5.084 19.745a3.753 3.753 0 0 1 2.445-.921zm52.706-3.765H7.53A7.53 7.53 0 0 0 0 22.589V56.47A7.53 7.53 0 0 0 7.53 64h52.705a7.53 7.53 0 0 0 7.53-7.53V22.589a7.53 7.53 0 0 0-7.53-7.53z" fill="#304ffe"/><path d="M22.588 0h52.706a7.53 7.53 0 0 1 7.53 7.53v33.882a7.53 7.53 0 0 1-7.53 7.53h-1.882a1.882 1.882 0 1 1 0-3.765h1.882a3.765 3.765 0 0 0 3.765-3.765V7.529a3.766 3.766 0 0 0-3.765-3.764H22.588a3.765 3.765 0 0 0-3.764 3.764v1.883a1.88 1.88 0 0 1-1.883 1.882 1.88 1.88 0 0 1-1.882-1.882V7.529A7.53 7.53 0 0 1 22.589 0z" fill="#304ffe"/></g></svg>
