<svg xmlns="http://www.w3.org/2000/svg" width="59" height="28" viewBox="0 0 59 28">
    <path fill="#FFF" fill-rule="evenodd" d="M40.431 5.004c.145 0 .177.045.177.181-.003 5.578-.004 11.157-.002 16.735 0 .708-.02 1.411-.252 2.09-.544 1.586-1.58 2.697-3.207 3.228-.257.084-.532.115-.8.17l-.124.032h-2.11l.005-2.45v-.176c.276-.014.538-.019.799-.042 1.2-.104 2.251-.995 2.52-2.143.051-.224.068-.46.069-.69l.002-8.346V5.018c.064-.004.116-.01.167-.01.919 0 1.838.003 2.756-.004zm14.159.137c1.09.327 2.094.822 2.933 1.605.58.541.956 1.191 1.072 1.979.003.022.018.042.027.064v12.53h-2.995v-1.4c-.074.054-.116.083-.156.114-1.071.856-2.262 1.474-3.614 1.772-1.387.306-2.784.402-4.187.144-1.523-.28-2.89-.888-3.98-2.006-1.037-1.062-1.454-2.341-1.288-3.809.078-.688.249-1.348.599-1.954.537-.93 1.359-1.485 2.388-1.76.976-.26 1.976-.295 2.979-.3.791-.003 1.583.008 2.374.006.94-.004 1.878-.037 2.788-.294.382-.109.76-.25 1.115-.425 1.09-.54 1.319-2.012.43-2.923-.527-.541-1.179-.87-1.898-1.072-1.502-.421-2.992-.383-4.452.185-.569.222-1.09.525-1.466 1.023-.314.415-.42.896-.445 1.402-.002.047-.007.094-.011.147h-3.495c.02-.34.018-.678.06-1.01.148-1.158.797-2.026 1.68-2.742.894-.725 1.936-1.154 3.047-1.422 2.176-.524 4.346-.5 6.495.146zm-27.053-.454c3.374.302 5.867 1.956 7.4 4.959.67 1.312.9 2.726.814 4.192-.006.1-.04.14-.14.13-.043-.005-.087-.001-.131-.001H21.333a6.485 6.485 0 0 0 .99 2.875c.652 1.014 1.514 1.802 2.654 2.236 1.88.716 3.614.409 5.183-.823.683-.537 1.196-1.216 1.583-1.988.04-.08.078-.129.182-.128 1.07.004 2.14.002 3.21.003.034 0 .067.005.13.01-.102.236-.186.465-.295.683-1.327 2.666-3.465 4.32-6.408 4.882-2.681.511-5.139-.084-7.288-1.759-1.838-1.432-2.966-3.313-3.22-5.622-.385-3.506.972-6.262 3.901-8.237 1.675-1.129 3.57-1.593 5.582-1.412zm-12.168.428c1.143.008 2.286.004 3.43.004h.199c-.026.062-.04.104-.06.144l-8.09 16.011c-.042.084-.087.121-.187.12-.772-.004-1.544-.004-2.316.001-.107 0-.154-.043-.197-.13-2.425-4.8-4.85-9.602-7.277-14.403l-.797-1.58C.052 5.24.032 5.196 0 5.128c.072-.004.119-.009.166-.009 1.178 0 2.355.002 3.533-.003.116 0 .169.038.216.141 1.832 4.048 3.668 8.094 5.504 12.14l.08.172c.033-.069.058-.116.08-.164 1.828-4.03 3.656-8.058 5.479-12.089.067-.15.142-.203.31-.201zm40.254 8.458c-.07.025-.12.04-.169.06-1.274.52-2.608.8-3.974.918-.977.085-1.958.12-2.938.183-.526.034-1.05.1-1.547.289-.565.214-.936.606-1.01 1.206-.12.964.202 1.783.94 2.423.596.516 1.325.729 2.095.808 1.334.138 2.616-.086 3.847-.603.834-.351 1.547-.863 2.066-1.61.774-1.115.863-2.36.69-3.674zM24.06 7.936c-1.343.883-2.155 2.139-2.557 3.669-.02.071-.03.145-.047.225h10.823c-.002-.031-.002-.046-.004-.06-.004-.024-.007-.048-.013-.071-.33-1.344-.996-2.487-2.066-3.389a5.123 5.123 0 0 0-6.136-.374zM40.592 0c.004.048.013.096.013.143v2.944c0 .048-.004.095-.007.153h-3.073c-.005-.02-.015-.042-.015-.064 0-1.059.002-2.117.003-3.176h3.079z"/>
</svg>
