<svg xmlns="http://www.w3.org/2000/svg" width="33" height="32" viewBox="0 0 33 32">
    <path fill="#FFF" fill-rule="evenodd" d="M17.093 0c.03.005.059.012.089.014.293.018.587.027.88.055.713.067 1.42.176 2.119.331 1.359.303 2.658.763 3.894 1.388 2.294 1.16 4.21 2.748 5.736 4.77 1.87 2.478 2.915 5.253 3.148 8.312.054.7.052 1.402.008 2.104a15.556 15.556 0 0 1-2.23 7.098 16.187 16.187 0 0 1-3.8 4.308 16.595 16.595 0 0 1-3.721 2.231 16.65 16.65 0 0 1-3.769 1.133 17.184 17.184 0 0 1-5.3.096 16.535 16.535 0 0 1-1.9-.378 16.552 16.552 0 0 1-3.97-1.594 16.425 16.425 0 0 1-3.822-2.945 16.033 16.033 0 0 1-2.71-3.769 15.476 15.476 0 0 1-1.713-6.166c-.009-.142-.021-.285-.032-.427v-1.15c.005-.033.012-.067.015-.1.033-.403.058-.806.101-1.207a14.02 14.02 0 0 1 .456-2.295C1.283 9.291 2.556 7.072 4.38 5.15a16.367 16.367 0 0 1 4.036-3.1A16.606 16.606 0 0 1 12.65.436 16.291 16.291 0 0 1 15.47.03c.14-.007.28-.02.418-.03h1.205zm-.597 8.003v.01c-.704 0-1.408-.01-2.112.002-1.36.024-2.72.058-4.08.092-.394.01-.786.032-1.179.053a91.593 91.593 0 0 0-2.4.159c-.387.031-.773.064-1.157.106-.313.035-.628.07-.936.13-.454.09-.808.323-.963.766a2.669 2.669 0 0 0-.134.596c-.047.455-.08.91-.105 1.367a66.923 66.923 0 0 0-.104 3.818c.008 1.476.026 2.951.043 4.427.004.276.02.552.038.828.027.448.055.897.093 1.344.021.254.048.508.1.757.082.388.284.707.678.865.205.082.426.14.646.173.37.055.746.084 1.12.12.41.038.82.077 1.232.105.57.04 1.14.072 1.711.101.67.034 1.34.07 2.01.089 1.028.029 2.056.059 3.084.062 1.913.007 3.827.005 5.74-.014 1.136-.011 2.27-.06 3.405-.095.376-.012.752-.037 1.128-.058.379-.022.757-.044 1.135-.069.3-.02.598-.043.896-.068.314-.027.63-.053.942-.09.36-.041.72-.077 1.075-.147.436-.087.772-.321.921-.745.069-.194.118-.399.14-.603.047-.457.08-.915.105-1.374.034-.621.061-1.243.078-1.864.018-.625.029-1.25.025-1.875a763.924 763.924 0 0 0-.043-4.506c-.003-.274-.02-.547-.036-.82-.028-.451-.056-.902-.094-1.352a6.268 6.268 0 0 0-.1-.75c-.085-.407-.304-.729-.718-.887a2.685 2.685 0 0 0-.57-.149c-.357-.052-.719-.084-1.08-.118-.406-.04-.814-.077-1.222-.107a90.807 90.807 0 0 0-1.596-.1 97.028 97.028 0 0 0-4.227-.15c-1.163-.017-2.326-.02-3.489-.03zm.004 1.519c3.708.001 6.718 2.905 6.707 6.471-.011 3.592-3 6.47-6.718 6.47-3.703 0-6.701-2.898-6.697-6.472.004-3.584 2.997-6.47 6.708-6.47z"/>
</svg>
