<svg xmlns="http://www.w3.org/2000/svg" width="79" height="23" viewBox="0 0 79 23">
    <path fill="#FFF" fill-rule="evenodd" d="M68.586 9.229l-.284-.05c-.109.195-.266.38-.32.588-.42 1.639-.809 3.285-1.235 4.922-.118.453.08.625.486.646.506.026 1.015.017 1.524.014 1.712-.013 1.866.197 1.255-1.62-.501-1.492-.953-3-1.426-4.5M28.7 4.419c1.076 1.232 1.599 2.692 1.911 4.211.268 1.303.316 2.649.416 3.564-.07 2.667-.344 4.864-1.374 6.926-1.251 2.503-3.384 3.758-6.169 3.886a11.141 11.141 0 0 1-3.724-.487c-2.352-.728-3.45-2.595-4.014-4.782-.727-2.812-.889-5.665-.306-8.513.498-2.437 1.424-4.69 3.88-5.933 2.64-1.336 7.332-1.216 9.38 1.128zM13.13 0c.645-.008.907.186.89.845-.04 1.61.009 3.221-.032 4.831-.007.282-.275.557-.422.836-.28-.216-.702-.377-.819-.656-.515-1.236-.959-2.5-1.394-3.766-.187-.54-.497-.814-1.107-.795-.818.025-1.638.015-2.458.003-.582-.008-.878.19-.873.812.021 2.566.02 5.132.002 7.698-.004.586.21.879.837.83.084-.007.17.002.254 0 2.44-.061 2.018.43 2.72-2.01.077-.263.44-.45.669-.672.141.274.4.546.405.823.038 1.774.035 3.549.003 5.322-.005.263-.181.694-.37.749-.522.151-.63-.29-.722-.68-.113-.478-.242-.953-.364-1.43-.014-.053-.018-.108-.034-.16-.214-.675-1.162-.882-2.777-.652-.717.102-.61.603-.611 1.054-.006 2.484.015 4.968-.016 7.451-.008.674.217 1.024.93 1.083.42.034.852.094 1.244.232.231.082.396.34.59.518-.217.143-.433.408-.653.41-2.57.03-5.142.018-7.712.018-.255 0-.524.049-.759-.018-.204-.059-.368-.248-.55-.38.16-.185.32-.372.483-.555.014-.016.054-.01.081-.017 1.817-.423 1.649-.061 1.65-2.076.004-5.76.002-11.52.002-17.279 0-1.115-.054-1.17-1.211-1.337C.783 1 .516 1.003.36.882.222.771.097.45.167.336.268.174.547.028.754.025 2.308-.001 3.862.009 5.416.009h1.61C9.06.01 11.095.025 13.13 0zm58.305 3.824c.716 2.542 1.58 5.045 2.377 7.566.99 3.126 1.99 6.249 2.938 9.386.176.584.47.862 1.057 1.006.255.063.448.36.669.551-.266.12-.527.334-.797.344-1.044.041-2.09.017-3.137.017-1.045.001-2.092.025-3.136-.017-.234-.01-.459-.253-.688-.388.187-.167.348-.429.565-.485 1.276-.327 1.276-.31.842-1.541-.364-1.032-.737-2.06-1.063-3.103-.145-.465-.384-.684-.897-.674-1.074.02-2.15-.03-3.22.031-.278.016-.71.29-.776.523-.36 1.284-.633 2.59-.924 3.891-.105.472.133.726.613.787.28.035.59.007.833.116.214.095.355.342.528.521-.197.113-.391.32-.59.324-1.3.03-2.6.03-3.9 0-.18-.004-.355-.232-.532-.356.139-.178.264-.495.42-.51.948-.09 1.127-.743 1.316-1.467.628-2.402 1.303-4.791 1.939-7.191.724-2.732 1.425-5.47 2.142-8.204.069-.262.204-.509.271-.771.353-1.376.35-1.345 1.757-1.386.807-.023 1.162.212 1.393 1.03zm-11.179-.927c.254.004.503.217.755.333-.226.164-.433.429-.681.472-.672.117-.856.473-.855 1.088.015 5.296.018 10.592-.003 15.887-.003.675.233.99.929 1.106.276.047.501.371.75.57-.278.114-.555.322-.835.327-1.865.03-3.73.028-5.594-.001-.244-.004-.484-.22-.726-.339.19-.196.349-.509.575-.565.65-.16.839-.521.832-1.13a250.458 250.458 0 0 1 0-6.305c.01-.668-.243-.953-.932-.94-1.017.02-2.034.017-3.051.002-.553-.009-.838.177-.834.757.017 2.238.016 4.476.007 6.715-.002.528.238.774.766.904.255.063.448.362.67.553-.265.121-.528.343-.795.347-1.948.03-3.899.029-5.847.002-.253-.004-.502-.212-.752-.325.22-.193.427-.532.665-.554.814-.074 1.003-.474 1-1.201-.024-5.24-.023-10.482 0-15.723.003-.701-.23-1.06-.959-1.178-.253-.041-.468-.301-.7-.46.246-.12.49-.337.74-.34 1.977-.029 3.955-.027 5.932-.003.23.002.458.195.686.3-.207.174-.391.455-.626.503-.596.122-.778.454-.777.989.008 2.265.013 4.531-.003 6.796-.004.544.173.8.779.784a66.785 66.785 0 0 1 3.22-.003c.576.011.818-.208.806-.773-.022-1.146-.006-2.292-.006-3.439.001-1.092-.018-2.184.008-3.275.014-.586-.228-.906-.812-1.068-.223-.062-.39-.31-.583-.473.248-.119.493-.336.742-.34 1.837-.03 3.673-.03 5.51 0zM39.04 2.89c.233.002.466.096.698.147l.047.334c-.339.119-.669.29-1.018.346-.658.103-.977.375-.975 1.075.021 5.292.02 10.584 0 15.876-.002.653.27.848.899.873 2.406.095 2.408.11 3.288-2.076.296-.735.555-1.484.873-2.21.08-.185.317-.306.482-.457.138.174.393.346.397.523.03 1.609.038 3.219-.013 4.827-.006.188-.405.522-.625.524-3.529.033-7.058.029-10.588.007-.223-.002-.445-.22-.668-.337.203-.183.377-.471.614-.532 1.256-.32 1.261-.3 1.261-1.553 0-5.047-.015-10.094.015-15.14.005-.835-.157-1.373-1.138-1.447-.19-.015-.357-.328-.534-.503.21-.094.421-.27.633-.271 2.117-.02 4.235-.017 6.352-.006zM20.78 4.985c-.43 1.054-.872 2.178-.918 3.287-.125 2.966-.144 5.947.011 8.91.065 1.239.574 2.491 1.07 3.662.447 1.053 1.555 1.4 2.705 1.077 1.598-.45 2.025-1.802 2.247-3.095.345-2.007.433-4.056.63-6.086l-.243-.012c0-1.228.092-2.464-.026-3.682-.122-1.264-.343-2.538-.715-3.752-.29-.945-.914-1.774-2.096-1.899-1.31-.138-2.217.486-2.666 1.59z"/>
</svg>
