<svg xmlns="http://www.w3.org/2000/svg" xmlns:xlink="http://www.w3.org/1999/xlink" enable-background="new 0 0 200 31.1" version="1.1" viewBox="0 0 200 31.1" xml:space="preserve" class="js-amplitude-click" data-description="Menu - Logo"> <style type="text/css"> .st0{clip-path: url(#9bd6d274-de31-11e9-8a34-2a2ae2dbcce4);}.st1{clip-path: url(#20453d8a-de31-11e9-8a34-2a2ae2dbcce4);}.st2{fill: #304FFE;}.st3{fill: #24a148;}</style> <title>Logo-QB3</title> <defs> <rect id="a8b7c6e2-de31-11e9-8a34-2a2ae2dbcce4" width="200" height="31.1"></rect> </defs> <clipPath id="9bd6d274-de31-11e9-8a34-2a2ae2dbcce4"> <use xlink:href="#a8b7c6e2-de31-11e9-8a34-2a2ae2dbcce4"></use> </clipPath> <g class="st0"> <defs> <rect id="8d667708-de31-11e9-8a34-2a2ae2dbcce4" width="200" height="31.1"></rect> </defs> <clipPath id="20453d8a-de31-11e9-8a34-2a2ae2dbcce4"> <use xlink:href="#8d667708-de31-11e9-8a34-2a2ae2dbcce4"></use> </clipPath> <g class="st1"> <path class="st2" d="m62.3 6.5c1.3 0 2.6 0.2 3.9 0.7 1.1 0.5 2.1 1.1 3 2 0.8 0.8 1.5 1.8 1.9 2.9 0.5 1.2 0.7 2.4 0.7 3.6 0 0.6 0 1.1-0.1 1.7-0.1 0.5-0.2 1-0.2 1.3h-14.3c0.3 1.2 1 2.2 2 3 1.1 0.7 2.4 1.1 3.7 1 1 0 2-0.2 3-0.5 0.9-0.4 1.8-0.9 2.6-1.5l2.2 3.7c-1.1 0.9-2.3 1.7-3.7 2.2-2.8 1.1-5.9 1.1-8.7 0-1.3-0.5-2.5-1.3-3.5-2.2s-1.7-2.1-2.3-3.3c-0.6-1.3-0.9-2.7-0.8-4.2-0.1-4.2 2.5-8.1 6.4-9.7 1.3-0.4 2.7-0.7 4.2-0.7m-0.2 4.5c-1.1 0-2.2 0.3-3.1 1-0.9 0.8-1.5 1.8-1.8 3h9.2c0-1.1-0.5-2.2-1.3-3-0.9-0.7-1.9-1.1-3-1"></path> <path class="st2" d="M44,7v11.6c0.1,1-0.3,2.1-1.1,2.8c-1.5,1.4-3.9,1.4-5.4,0c-0.8-0.7-1.2-1.8-1.1-2.8V7H31v12.6 c0,4,2.7,7.9,7.7,7.9c3.2,0,5.3-2.8,5.3-2.8V27h5.4V7H44z"></path> <path class="st2" d="m84.8 6.7c0.6 0 1.2 0.1 1.7 0.3v4.8h-1.5c-1.4-0.1-2.8 0.4-3.8 1.2-1.1 1-1.6 2.5-1.5 4v10h-5.5v-20h5v2.4c0.6-0.9 1.5-1.5 2.4-2 1.1-0.5 2.1-0.7 3.2-0.7"></path> <path class="st2" d="m97.8 6.5c2.8 0 5.5 1.1 7.6 3 1 0.9 1.8 2.1 2.3 3.3 0.6 1.3 0.9 2.7 0.8 4.1 0 2.8-1.1 5.5-3.2 7.5-4.3 4-10.9 4-15.2 0-1-0.9-1.8-2.1-2.3-3.3-0.6-1.3-0.8-2.7-0.8-4.1s0.3-2.8 0.8-4.1c0.5-1.2 1.3-2.4 2.3-3.3s2.1-1.7 3.4-2.2c1.4-0.6 2.9-0.9 4.3-0.9m0 5c-1.4-0.1-2.8 0.5-3.8 1.6s-1.5 2.5-1.4 3.9c-0.1 1.4 0.5 2.8 1.4 3.9 1 1 2.3 1.6 3.8 1.5 0.7 0 1.4-0.1 2-0.4s1.2-0.6 1.6-1.1c0.5-0.5 0.8-1.1 1.1-1.7 0.3-0.7 0.5-1.4 0.5-2.2 0-0.7-0.1-1.5-0.4-2.2-0.3-0.6-0.6-1.2-1.1-1.7s-1-0.9-1.6-1.1c-0.7-0.4-1.4-0.5-2.1-0.5"></path> <path class="st2" d="m29.4 28.1l-4.1-5.4c0.9-1 1.6-2.2 2.1-3.4 0.7-1.7 1.1-3.6 1.1-5.5s-0.4-3.8-1.1-5.5c-0.7-1.6-1.7-3.1-3-4.4-1.4-1.2-2.9-2.2-4.6-2.9-1.8-0.7-3.6-1-5.5-1h-0.1c-1.9 0-3.8 0.3-5.6 1-1.6 0.7-3.2 1.7-4.4 3-1.3 1.3-2.3 2.7-3 4.4-0.8 1.7-1.2 3.6-1.2 5.4 0 1.9 0.4 3.8 1.1 5.5 0.7 1.6 1.7 3.1 3 4.4 1 0.9 2 1.7 3.2 2.3l2.9-4.3c-0.8-0.4-1.5-0.9-2.2-1.5-0.8-0.8-1.4-1.7-1.8-2.8s-0.6-2.3-0.6-3.6c0-1.2 0.2-2.4 0.6-3.5 0.4-1 1-2 1.8-2.8s1.7-1.4 2.7-1.8c1.1-0.4 2.3-0.7 3.5-0.6 1.2 0 2.4 0.2 3.5 0.7 1 0.4 1.9 1 2.7 1.8s1.4 1.7 1.8 2.8 0.6 2.3 0.6 3.5-0.2 2.4-0.6 3.6c-0.4 1-1 2-1.8 2.8-0.6 0.6-1.4 1.2-2.2 1.5l7.2 9.4 4-3.1z"></path> <path class="st3" d="m11.1 24.9c0-1.7 1.3-3 3-3s3 1.3 3 3-1.3 3-3 3-3-1.4-3-3"></path> <path class="st2" d="m120.5 27.5c-2.7 0-5.3-0.4-7.9-1.1v-25.4h9.6c5.3 0 7.9 2.6 7.9 6.4 0 2.2-1.2 4.2-3.2 5.2 3.2 0.6 5.6 3.4 5.6 6.6 0 5-4 8.3-12 8.3m2.2-15.7c2.9 0 4.4-1.8 4.4-4.1s-1.3-4-5-4h-6.7v8h7.3zm-2 13c6.5 0 8.7-2.4 8.7-5.5 0-2.7-2.1-4.9-5.9-4.9h-8.1v9.8c1.8 0.4 3.6 0.6 5.3 0.6"></path> <path class="st2" d="m134.9 17.6c0.4-5.5 5.2-9.6 10.7-9.2 4.9 0.4 8.8 4.3 9.2 9.2-0.4 5.5-5.2 9.6-10.7 9.2-4.9-0.4-8.8-4.3-9.2-9.2m17.1 0c0-3.9-3.2-7.1-7.1-7.1s-7.1 3.2-7.1 7.1 3.2 7.1 7.1 7.1 7.1-3.2 7.1-7.1"></path> <rect class="st2" x="158.6" width="2.9" height="27"></rect> <path class="st2" d="m165.5 26.1v-2.7c1.6 1 3.4 1.5 5.3 1.5 3.2 0 4.7-1.5 4.7-3.1s-1-2.5-3.1-3.2l-2.4-1c-2.6-1-4.2-2.4-4.2-4.8 0-2.9 2.8-5.2 7.1-5.2 1.4 0 2.9 0.3 4.2 1v2.7c-1.3-0.7-2.7-1.1-4.2-1.1-2.5 0-4.2 1-4.2 2.6 0 1.3 0.9 1.9 2.6 2.6l2.3 0.9c3.1 1.2 4.6 2.8 4.6 5.4 0 3-2.5 5.8-7.4 5.8-1.8 0.1-3.7-0.4-5.3-1.4"></path> <path class="st2" d="m197.4 23.5c-1.6 2.6-4.4 4.2-7.4 4.1-5.4 0-9.4-4.3-9.4-9.9s4-9.9 9.4-9.9c2.9-0.1 5.5 1.3 7.1 3.7v-3.4h2.8v18.9h-2.6v-3.5zm0.1-5.9c0.2-3.9-2.8-7.1-6.7-7.3h-0.4c-4 0-6.9 3.1-6.9 7.4s2.9 7.4 6.9 7.4c3.9 0 7.1-3.1 7.1-7 0.1-0.2 0-0.4 0-0.5"></path> </g> </g> </svg>
