<svg xmlns="http://www.w3.org/2000/svg" width="123" height="40" viewBox="0 0 123 40" class="footer__quero-bolsa">
<g fill="#FFF" fill-rule="evenodd">
<path d="M28.782 13.765c.024-.496-.16-.854-.61-1.041-.498-.206-.949-.126-1.332.259-2.524 2.533-5.044 5.07-7.572 7.599-.258.258-.214.462.017.688.305.3.603.606.909.904.358.35.432.351.798-.016 2.471-2.485 4.938-4.974 7.414-7.454.273-.274.41-.575.376-.94M19.786 4.68a1.317 1.317 0 0 0-.973.433c-.682.708-1.364 1.417-2.057 2.114-1.788 1.798-3.58 3.592-5.377 5.38-.25.25-.237.464-.007.697.3.305.6.61.904.91.369.366.464.363.835-.009 2.001-2.009 4.004-4.016 6.004-6.027.532-.535 1.07-1.066 1.568-1.632.335-.381.307-.85.092-1.29-.204-.42-.579-.565-.99-.576M8.082 25.856c.259-.056.594-.118.924-.203 1.65-.422 3.296-.856 4.947-1.273 1.403-.355 2.81-.693 4.217-1.038.257-.063.396-.183.205-.448-.327-.454-.585-.938-.727-1.485-.068-.266-.24-.38-.542-.35a3.875 3.875 0 0 1-2.593-.644c-1.366-.91-2.086-2.191-2.054-3.854.009-.434-.125-.648-.558-.743a2.495 2.495 0 0 1-1.15-.623c-.254-.232-.417-.205-.505.143-.22.872-.446 1.741-.666 2.612-.405 1.605-.81 3.21-1.21 4.815-.223.9-.436 1.802-.646 2.705-.051.22-.02.411.358.386M25.99 9.911c.006-.7-.179-1.22-.542-1.61-.991-1.067-2.403-1.06-3.497.039-2.45 2.462-4.89 4.933-7.334 7.4-.358.362-.357.466.014.842.761.77 1.525 1.537 2.287 2.306.459.462.535.46.99.002 2.39-2.402 4.784-4.8 7.17-7.206.505-.51.986-1.047.912-1.773M17.026 0C24.04.253 29.265 3.433 32.36 9.828c1.976 4.082 2.113 8.367.693 12.683-.836 2.54-2.231 4.733-4.114 6.622-3.31 3.32-6.632 6.628-9.905 9.984a2.887 2.887 0 0 1-4.156 0c-3.335-3.434-6.748-6.79-10.104-10.202-2.276-2.313-3.688-5.1-4.403-8.271-.424-1.885-.457-3.797-.242-5.672.408-3.564 1.85-6.72 4.277-9.386C6.88 2.87 9.903 1.123 13.49.343 14.652.09 15.817 0 17.026 0M85.246 30.548c0 .655-.015 1.31.006 1.963.011.347.081.692.13 1.038.178 1.278.812 2.079 1.791 2.287.82.174 1.632.18 2.461.042.952-.158 1.539-.718 1.824-1.66.11-.36.182-.73.228-1.107.164-1.363.18-2.73.1-4.096-.043-.71-.098-1.422-.29-2.113-.256-.93-.777-1.559-1.709-1.736a6.992 6.992 0 0 0-2.301-.046c-1.056.149-1.674.776-1.962 1.837-.319 1.177-.326 2.384-.278 3.591m9.754.117c-.017 1.574-.083 3.14-.518 4.665-.575 2.014-1.81 3.2-3.8 3.493-1.705.252-3.397.269-5.082-.172-1.604-.42-2.526-1.566-3.028-3.153-.378-1.197-.505-2.442-.547-3.696-.053-1.587-.04-3.172.212-4.744.204-1.265.568-2.456 1.393-3.443.652-.782 1.507-1.176 2.437-1.362 1.72-.345 3.444-.351 5.164.07 1.76.43 2.736 1.67 3.248 3.415.47 1.607.512 3.265.521 4.927M54.967 8.51c-.288.677-.399 1.31-.566 1.924a662.997 662.997 0 0 0-1.896 7.117c-.085.324-.234.453-.565.444a26.236 26.236 0 0 0-1.853.004c-.388.017-.562-.133-.66-.502-.528-2.014-1.076-4.022-1.62-6.032-.246-.914-.496-1.826-.83-2.746-.054.337-.12.674-.16 1.013-.3 2.582-.602 5.165-.883 7.75-.04.38-.164.532-.555.516a30.422 30.422 0 0 0-1.939-.004c-.368.01-.474-.133-.43-.491.257-2.125.5-4.252.75-6.377.295-2.525.6-5.05.878-7.576.046-.424.2-.568.62-.548.63.03 1.264.02 1.895.002.31-.01.463.102.552.404.601 2.038 1.218 4.072 1.83 6.106l1.423 4.718c.29-.36.328-.75.434-1.101.95-3.162 1.886-6.329 2.828-9.493.188-.63.193-.63.857-.63.59 0 1.179.01 1.768-.002.293-.006.437.082.474.402.456 3.953.922 7.905 1.388 11.856.084.713.183 1.424.271 2.137.065.521.011.587-.494.59-.604.004-1.208-.018-1.81.007-.412.018-.572-.118-.62-.549-.322-2.897-.675-5.792-1.019-8.687-.006-.053-.027-.103-.068-.253M115.953 31.74c.489 0 .977-.014 1.465.004.363.013.434-.126.335-.455-.214-.706-.408-1.42-.607-2.13-.352-1.262-.702-2.524-1.056-3.785-.029-.1-.042-.25-.185-.238-.118.01-.1.15-.126.24l-.749 2.655c-.304 1.087-.599 2.176-.914 3.26-.107.368.013.47.373.454.487-.022.976-.006 1.464-.006m-.035 2.9c-.767 0-1.534.006-2.302-.004-.284-.004-.426.111-.503.386-.246.871-.519 1.735-.768 2.606-.071.25-.185.377-.463.373a94.745 94.745 0 0 0-2.511-.002c-.337.004-.441-.074-.325-.44 1.238-3.903 2.46-7.812 3.685-11.72.359-1.143.72-2.286 1.061-3.435.086-.288.222-.405.53-.4 1.088.014 2.176.017 3.264-.003.337-.006.462.143.552.433 1.321 4.23 2.648 8.458 3.978 12.685.272.861.483 1.743.85 2.574.075.169.031.302-.195.301h-2.888c-.263 0-.306-.217-.362-.397-.24-.772-.472-1.546-.698-2.322-.184-.635-.179-.636-.854-.636h-2.05M44 30.065c0-1.456.002-2.911 0-4.367-.001-.573.057-1.14.27-1.676.502-1.261 1.58-1.844 2.885-1.951 1.73-.142 3.473-.043 5.209.056.751.043 1.502.1 2.254.136.277.013.38.124.376.387-.01.651-.015 1.303.002 1.954.007.307-.107.404-.43.402-1.912-.013-3.825-.008-5.737-.005-1.046 0-1.477.413-1.483 1.412-.003.554.019 1.11-.006 1.663-.017.37.143.477.508.484 1.81.034 3.618.087 5.427.131.627.015.64.023.641.6.001.514-.015 1.027.006 1.54.012.314-.086.447-.436.452-1.564.02-3.128.059-4.692.094-.361.008-.722.03-1.084.038-.252.005-.368.116-.366.359.006.665-.023 1.332.014 1.996.046.813.524 1.228 1.383 1.231 1.927.009 3.854.01 5.78-.004.355-.003.491.09.477.441-.025.61-.027 1.22 0 1.83.017.351-.137.45-.471.476-1.762.136-3.523.264-5.292.253-.895-.005-1.79.049-2.681-.15-1.62-.359-2.462-1.206-2.517-2.793-.057-1.662-.012-3.326-.012-4.99H44zM58.987 35.944c1.173-.009 2.305.127 3.432-.098 1.013-.201 1.41-.666 1.413-1.73v-.35c-.008-1.034-.532-1.58-1.55-1.604-.736-.017-1.473-.006-2.209-.033a5.217 5.217 0 0 1-1.82-.397c-1.052-.439-1.753-1.223-2.01-2.37a9.772 9.772 0 0 1-.028-4.202c.383-1.796 1.634-2.652 3.283-2.983 1.635-.328 3.273-.14 4.904.08.49.066.976.173 1.466.248.24.037.348.164.348.407 0 .656-.004 1.312.003 1.968.004.305-.144.352-.406.335-1.455-.094-2.912-.172-4.371-.152-.47.006-.935.036-1.373.234-.116.052-.238.103-.336.182-.747.602-.64 1.444-.547 2.251.075.65.504 1.018 1.124 1.146.758.156 1.525.053 2.288.075.625.017 1.246.055 1.84.275 1.468.545 2.267 1.67 2.459 3.217.147 1.185.164 2.393-.133 3.564-.409 1.616-1.501 2.476-3.058 2.769-2.077.39-4.15.214-6.215-.095-1.26-.19-1.256-.224-1.256-1.53 0-.336.013-.672-.003-1.007-.014-.298.106-.37.382-.348.804.064 1.61.102 2.373.148M106.08 10.525c-.058-1.01-.034-2.018-.271-3.003-.224-.926-.697-1.575-1.699-1.746-.6-.102-1.194-.105-1.791-.065-1.13.075-1.843.676-2.079 1.804-.404 1.934-.382 3.88-.054 5.818.149.88.563 1.607 1.513 1.835a5.73 5.73 0 0 0 2.41.051c.788-.146 1.303-.587 1.57-1.35.383-1.089.329-2.228.402-3.344m2.919.018c-.017 1.402-.077 2.796-.474 4.155-.495 1.695-1.52 2.782-3.288 3.094-1.642.29-3.276.298-4.895-.106-1.628-.406-2.523-1.58-2.886-3.15-.614-2.651-.602-5.328-.008-7.985.452-2.021 1.787-3.168 3.819-3.43 1.424-.184 2.83-.176 4.237.152 1.6.372 2.506 1.433 2.985 2.95.443 1.406.496 2.861.51 4.32M114.072 7.88c0 .589.005 1.176-.002 1.764-.003.25.099.375.36.373.847-.004 1.695.027 2.54-.016.885-.045 1.371-.514 1.535-1.378a4.144 4.144 0 0 0 .008-1.54c-.161-.868-.65-1.307-1.554-1.334-.832-.026-1.665 0-2.497-.012-.317-.005-.4.142-.393.423.011.573.003 1.147.003 1.72m-3.064 2.606V3.593c0-.586.002-.59.612-.588 2.004.004 4.008-.025 6.01.025 2.089.053 3.568 1.076 3.898 3.172a9.62 9.62 0 0 1 .004 3.086c-.185 1.116-.833 1.919-1.81 2.456-.378.209-.395.384-.224.736.804 1.658 1.582 3.327 2.37 4.992.221.466.194.516-.313.517-.732.002-1.463-.01-2.194.004-.292.006-.453-.1-.567-.362-.69-1.582-1.4-3.156-2.085-4.74-.133-.306-.3-.45-.652-.434-.51.022-1.024.011-1.535-.015-.345-.017-.46.109-.456.446.012 1.522-.007 3.044.012 4.566.006.408-.113.564-.544.544a19.518 19.518 0 0 0-1.973 0c-.464.025-.564-.162-.56-.576.015-2.312.007-4.624.007-6.936M94.99 10.552c0 2.297-.01 4.593.01 6.89.004.438-.131.577-.58.555a25.832 25.832 0 0 0-2.082-.004c-.374.012-.488-.128-.486-.476.012-1.651.006-3.302.003-4.952-.001-.602-.01-.608-.61-.608-1.537-.002-3.074.009-4.61-.007-.397-.004-.543.105-.538.512.022 1.665-.003 3.33.018 4.994.005.415-.13.556-.555.538a19.993 19.993 0 0 0-1.994.003c-.471.027-.571-.158-.566-.573.02-1.55.008-3.1.008-4.65V3.603c0-.593.001-.593.61-.593.68 0 1.36.014 2.038-.007.355-.01.458.123.456.454-.012 1.75.005 3.502-.013 5.253-.004.391.117.526.527.521 1.567-.019 3.133-.02 4.7 0 .415.006.536-.144.534-.525-.012-1.722.009-3.445-.01-5.167-.005-.415.129-.556.557-.537.693.029 1.39.026 2.082 0 .39-.015.511.11.509.489-.015 2.353-.008 4.707-.008 7.061M61.003 10.565c0-1.372-.002-2.745 0-4.118.005-2.178 1.18-3.384 3.381-3.437 2.044-.05 4.082.103 6.122.21.37.02.51.163.492.53-.025.514-.028 1.03 0 1.544.021.395-.12.524-.521.52-1.666-.018-3.333-.009-4.999-.007-1.054.002-1.397.344-1.399 1.39 0 .501.011 1.002-.003 1.502-.01.332.132.456.463.46 1.26.015 2.52.044 3.78.073.448.01.896.042 1.344.05.26.005.359.122.355.372-.009.543-.016 1.087.002 1.63.01.327-.14.415-.445.42-1.564.029-3.127.07-4.691.109-.13.003-.26.014-.39.019-.304.01-.43.152-.42.462.02.514.002 1.03.005 1.544.007.966.382 1.342 1.375 1.347 1.652.008 3.304.002 4.956.003.578.001.58.003.582.574.002.53-.002 1.058 0 1.587 0 .234-.084.373-.347.395-2.238.185-4.476.337-6.724.208-.396-.023-.771-.134-1.138-.266-1.213-.438-1.767-1.275-1.778-2.702-.01-1.473-.002-2.946-.002-4.419M72.29 30.745c.022.79.032 1.763.193 2.73.275 1.655.943 2.338 2.576 2.473 1.47.121 2.935-.039 4.401-.139.535-.036.535-.043.536.516 0 .554-.006 1.107.002 1.66.004.256-.08.399-.337.465-2.163.56-4.347.701-6.556.384-1.834-.264-2.897-1.423-3.47-3.163-.39-1.186-.502-2.417-.58-3.652-.13-2.014-.046-4.017.418-5.987.15-.639.402-1.239.724-1.81.84-1.486 2.204-2.027 3.758-2.168 1.95-.178 3.862.096 5.741.643.213.062.304.177.302.401-.006.641-.011 1.283.002 1.923.006.31-.118.368-.39.32-1.299-.226-2.61-.29-3.926-.3a6.816 6.816 0 0 0-.803.046c-1.428.16-2.106.835-2.365 2.299-.186 1.051-.223 2.11-.226 3.36M97.008 28.61c0-2.037.01-4.073-.008-6.109-.003-.386.117-.514.514-.5.746.026 1.493.008 2.24.009.576 0 .578.001.578.584l-.001 9.456c0 .502-.001 1.004.001 1.506.005 1.082.448 1.51 1.577 1.514 1.508.004 3.015 0 4.522.002.563 0 .564 0 .565.561 0 .655-.011 1.311.004 1.966.006.292-.109.398-.403.394-2.123-.028-4.248.058-6.37-.048-1.964-.098-3.147-1.228-3.194-3.144-.05-2.063-.01-4.128-.01-6.192h-.015zM73.009 9.195c0-1.896.01-3.792-.009-5.688-.004-.406.13-.52.513-.505.666.026 1.335.028 2.001 0 .406-.018.506.145.504.528-.01 3.332-.007 6.664-.006 9.996 0 1.432.295 1.726 1.728 1.726 1.249 0 2.498.015 3.747-.008.399-.007.527.133.512.523a28.119 28.119 0 0 0 0 1.766c.007.32-.09.47-.436.467-1.745-.012-3.491.001-5.237-.012a4.663 4.663 0 0 1-1.504-.26c-1.257-.44-1.72-1.457-1.779-2.675-.067-1.376-.029-2.757-.034-4.135-.003-.575 0-1.149 0-1.723"></path>
</g>
</svg>
