<svg viewBox="0 0 65 64" xmlns="http://www.w3.org/2000/svg"><g fill="none" fill-rule="evenodd"><title>Ãcone ilustrativo de sucesso</title><path d="M32.088 60.298c-15.58 0-28.21-12.63-28.21-28.21s12.63-28.21 28.21-28.21 28.21 12.63 28.21 28.21-12.63 28.21-28.21 28.21M32 0C14.327 0 0 14.329 0 32c0 17.673 14.327 32 32 32 17.673 0 32-14.327 32-32C64 14.329 49.673 0 32 0" fill="#304ffe"/><path d="M30.398 42.734L16.19 28.526a1.531 1.531 0 1 0-2.166 2.167L29.342 46.01c.278.277.659.448 1.083.448.437 0 .824-.185 1.103-.48L57.11 19.19c0 .003 2.192-2.285 2.192-2.285-.002-.002 4.396-4.618 4.396-4.618.257-.28.424-.648.424-1.057 0-.846-.686-1.532-1.531-1.532-.439 0-.826.187-1.105.478l-3.94 4.12a591.03 591.03 0 0 0-2.145 2.227c.003.005-25.002 26.212-25.002 26.212z" fill="#304ffe"/></g></svg>
